<svg xmlns="http://www.w3.org/2000/svg" width="1200" height="630" viewBox="0 0 1200 630">
<defs><linearGradient id="bg" x1="0" y1="0" x2="1" y2="1"><stop stop-color="#070a0f"/><stop offset=".55" stop-color="#0b1726"/><stop offset="1" stop-color="#173653"/></linearGradient></defs>
<rect width="1200" height="630" fill="url(#bg)"/>
<g opacity=".12" stroke="#fff"><path d="M0 70h1200M0 140h1200M0 210h1200M0 280h1200M0 350h1200M0 420h1200M0 490h1200M0 560h1200"/><path d="M80 0v630M160 0v630M240 0v630M320 0v630M400 0v630M480 0v630M560 0v630M640 0v630M720 0v630M800 0v630M880 0v630M960 0v630M1040 0v630M1120 0v630"/></g>
<rect x="84" y="84" width="72" height="72" rx="18" fill="#101722" stroke="#ffffff" stroke-opacity=".2"/>
<path d="M102 105l15 14-15 14" fill="none" stroke="#ff7a1a" stroke-width="7" stroke-linecap="round" stroke-linejoin="round"/><path d="M122 136h19" stroke="#fff" stroke-width="6" stroke-linecap="round"/>
<text x="182" y="137" font-family="Arial, sans-serif" font-size="42" font-weight="700" fill="#fff">Nabil Islam</text>
<text x="84" y="290" font-family="Arial, sans-serif" font-size="82" font-weight="800" fill="#fff">DevOps Engineer</text>
<text x="84" y="388" font-family="Arial, sans-serif" font-size="54" font-weight="700" fill="#ff7a1a">Infrastructure. Automation. Delivery.</text>
<text x="84" y="500" font-family="Arial, sans-serif" font-size="28" fill="#b8c1ce">Cloud infrastructure, CI/CD, containers and observability.</text>
</svg>